<?xml version="1.0" encoding="UTF-8" standalone="no"?>
<!-- Created with Inkscape (http://www.inkscape.org/) -->

<svg
   xmlns:dc="http://purl.org/dc/elements/1.1/"
   xmlns:cc="http://creativecommons.org/ns#"
   xmlns:rdf="http://www.w3.org/1999/02/22-rdf-syntax-ns#"
   xmlns:svg="http://www.w3.org/2000/svg"
   xmlns="http://www.w3.org/2000/svg"
   xmlns:sodipodi="http://sodipodi.sourceforge.net/DTD/sodipodi-0.dtd"
   xmlns:inkscape="http://www.inkscape.org/namespaces/inkscape"
   width="301.19775"
   height="81.366203"
   viewBox="0 0 79.691908 21.528141"
   version="1.1"
   id="svg8"
   inkscape:version="0.92.4 (5da689c313, 2019-01-14)"
   sodipodi:docname="logo-lemon.svg">
  <defs
     id="defs2" />
  <sodipodi:namedview
     id="base"
     pagecolor="#ffffff"
     bordercolor="#666666"
     borderopacity="1.0"
     inkscape:pageopacity="0.0"
     inkscape:pageshadow="2"
     inkscape:zoom="2.4751181"
     inkscape:cx="251.13299"
     inkscape:cy="-6.644613"
     inkscape:document-units="mm"
     inkscape:current-layer="layer3"
     showgrid="false"
     showguides="false"
     showborder="false"
     inkscape:window-width="2560"
     inkscape:window-height="1017"
     inkscape:window-x="-8"
     inkscape:window-y="-8"
     inkscape:window-maximized="1"
     units="px"
     fit-margin-top="0"
     fit-margin-left="0"
     fit-margin-right="0"
     fit-margin-bottom="0">
    <inkscape:grid
       type="xygrid"
       id="grid71"
       originx="-14.965618"
       originy="-168.47007" />
  </sodipodi:namedview>
  <metadata
     id="metadata5">
    <rdf:RDF>
      <cc:Work
         rdf:about="">
        <dc:format>image/svg+xml</dc:format>
        <dc:type
           rdf:resource="http://purl.org/dc/dcmitype/StillImage" />
        <dc:title></dc:title>
      </cc:Work>
    </rdf:RDF>
  </metadata>
  <g
     inkscape:groupmode="layer"
     id="layer3"
     inkscape:label="lemon4"
     transform="translate(-14.965618,-20.001794)" />
  <g
     inkscape:groupmode="layer"
     id="layer4"
     inkscape:label="lemon2"
     style="display:inline"
     transform="translate(-14.965618,-107.00179)">
    <path
       style="display:inline;fill:#000000;fill-opacity:1;stroke-width:0.02445998"
       d="m 70.351586,109.89038 a 9.3224158,9.3131898 0 0 0 -9.322297,9.31308 9.3224158,9.3131898 0 0 0 9.322297,9.31344 9.3224158,9.3131898 0 0 0 9.322664,-9.31344 9.3224158,9.3131898 0 0 0 -9.322664,-9.31308 z m 0,0.89627 a 8.4250707,8.4167331 0 0 1 8.425289,8.41681 8.4250707,8.4167331 0 0 1 -8.425289,8.4168 8.4250707,8.4167331 0 0 1 -8.424923,-8.4168 8.4250707,8.4167331 0 0 1 8.424923,-8.41681 z"
       id="path222"
       inkscape:connector-curvature="0" />
    <rect
       style="display:inline;fill:#000000;fill-opacity:1;stroke-width:0.05824217"
       id="rect139"
       width="0.89734489"
       height="18.626379"
       x="33.012218"
       y="109.89037" />
    <g
       id="g4023"
       transform="matrix(0.09970498,0,0,0.09960631,68.606897,102.51951)">
      <rect
         y="106.527"
         x="-255.14999"
         height="154.47302"
         width="9"
         id="rect143"
         style="display:inline;fill:#000000;fill-opacity:1;stroke-width:0.36646217" />
      <g
         id="g4006">
        <rect
           style="display:inline;fill:#000000;fill-opacity:1;stroke-width:0.71150827"
           id="rect69"
           width="9"
           height="216"
           x="-538"
           y="44.999996" />
        <rect
           style="display:inline;fill:#000000;fill-opacity:1;stroke-width:1.27407932"
           id="rect131"
           width="9"
           height="216"
           x="-515"
           y="45" />
        <rect
           style="display:inline;fill:#000000;fill-opacity:1;stroke-width:1.63240206"
           id="rect133"
           width="105"
           height="9"
           x="-515"
           y="252" />
        <rect
           style="display:inline;fill:#000000;fill-opacity:1;stroke-width:0.86598748"
           id="rect135"
           width="9"
           height="187"
           x="-380"
           y="74" />
        <rect
           style="display:inline;fill:#000000;fill-opacity:1;stroke-width:1.11463308"
           id="rect137"
           width="88"
           height="9"
           x="-357"
           y="74" />
        <rect
           style="display:inline;fill:#000000;fill-opacity:1;stroke-width:0.68430376"
           id="rect141"
           width="88"
           height="9"
           x="-357"
           y="252" />
        <rect
           style="display:inline;fill:#000000;fill-opacity:1;stroke-width:0.46276554"
           id="rect145"
           width="70"
           height="9"
           x="-357"
           y="156" />
        <path
           style="display:inline;fill:#000000;stroke:#000000;stroke-width:0.26458332px;stroke-linecap:butt;stroke-linejoin:miter;stroke-opacity:1"
           d="m -254.9,74 12.628,0.214 72.73046,86.23654 L -95.060035,74 H -89 v 187 h -9 V 90.291679 L -112,106.527 V 261 h -9 V 116.975 L -183.60001,189.14041 -255,106.527 v 0 L -254.9,94 c 22.56462,26.73343 48.68059,56.01139 71.4,82.6134 l 8.342,-9.6624 z"
           id="path151"
           inkscape:connector-curvature="0"
           sodipodi:nodetypes="ccccccccccccccccccc" />
        <path
           style="display:inline;fill:#000000;stroke:#000000;stroke-width:0.26458332px;stroke-linecap:butt;stroke-linejoin:miter;stroke-opacity:1"
           d="m 252,74 h 9 V 241.811 L 126,74 v 0 h 12.72 L 252,216.83 Z"
           id="path153"
           inkscape:connector-curvature="0"
           sodipodi:nodetypes="cccccccc" />
        <path
           style="display:inline;fill:#000000;stroke:#000000;stroke-width:0.26458332px;stroke-linecap:butt;stroke-linejoin:miter;stroke-opacity:1"
           d="M 261,261 126,94 v 167 h 9 V 117.1 L 249.451,261 Z"
           id="path155"
           inkscape:connector-curvature="0"
           sodipodi:nodetypes="ccccccc" />
        <rect
           style="display:inline;fill:#000000;fill-opacity:1;stroke-width:0.4464854"
           id="rect183"
           width="9"
           height="133.80357"
           x="-47"
           y="99.790924" />
        <rect
           style="display:inline;fill:#000000;fill-opacity:1;stroke-width:0.44489056"
           id="rect183-2"
           width="9"
           height="132.8492"
           x="73"
           y="100.93354" />
      </g>
    </g>
  </g>
  <g
     inkscape:groupmode="layer"
     id="layer1"
     inkscape:label="lemon3"
     style="display:inline"
     transform="translate(-14.965618,-20.001794)" />
</svg>
